<svg aria-hidden="true" style="position: absolute; width: 0; height: 0; overflow: hidden;" version="1.1" xmlns="http://www.w3.org/2000/svg" xmlns:xlink="http://www.w3.org/1999/xlink">
<defs>
<symbol id="icon-close-btn" viewBox="0 0 32 32">
<path stroke-linejoin="round" stroke-linecap="round" stroke-miterlimit="4" stroke-width="2.4" d="M24.004 8.001l-16.003 16.003M8.001 8.001l16.003 16.003"></path>
</symbol>
<symbol id="icon-check" viewBox="0 0 40 32">
<path d="M33.805 1.036c0.659-0.638 1.559-1.030 2.55-1.030 2.008 0 3.639 1.613 3.67 3.613l0 0.003c0.001 0.028 0.001 0.062 0.001 0.095 0 0.966-0.368 1.845-0.972 2.506l0.003-0.003-19.588 24.631c-0.675 0.728-1.636 1.183-2.704 1.183-0.495 0-0.968-0.098-1.399-0.275l0.024 0.009c-0.477-0.197-0.884-0.474-1.225-0.816l-0-0-12.992-13.060c-0.725-0.678-1.176-1.639-1.176-2.707 0-0.502 0.1-0.98 0.281-1.416l-0.009 0.025c0.564-1.368 1.888-2.314 3.432-2.314 0.018 0 0.035 0 0.053 0l-0.003-0c1.038 0.019 1.969 0.468 2.623 1.174l0.002 0.002 10.282 10.334 17.051-21.846c0.032-0.039 0.065-0.074 0.1-0.108l-0.004-0z"></path>
</symbol>
<symbol id="icon-facebook" viewBox="0 0 32 32">
<path d="M29.005 16.003c0-7.181-5.821-13.002-13.002-13.002s-13.002 5.821-13.002 13.002c0 7.181 5.821 13.002 13.002 13.002v0c7.178-0.007 12.995-5.824 13.002-13.001v-0.001zM17.003 26.955v-7.952h3c0.552 0 1-0.448 1-1s-0.448-1-1-1v0h-3v-3c0-1.105 0.896-2 2-2v0h2c0.552 0 1-0.448 1-1s-0.448-1-1-1v0h-2c-2.207 0.007-3.993 1.794-4.001 4v3.001h-3c-0.552 0-1 0.448-1 1s0.448 1 1 1v0h3v7.952c-5.63-0.529-10.002-5.232-10.002-10.956 0-6.076 4.926-11.002 11.002-11.002s11.002 4.926 11.002 11.002c0 5.724-4.371 10.427-9.958 10.953l-0.044 0.003z"></path>
</symbol>
<symbol id="icon-instagram" viewBox="0 0 32 32">
<path d="M16.003 10.002c-3.314 0-6.001 2.687-6.001 6.001s2.687 6.001 6.001 6.001v0c3.314 0 6.001-2.687 6.001-6.001s-2.687-6.001-6.001-6.001v0zM16.003 20.003c-2.209 0-4.001-1.791-4.001-4.001s1.791-4.001 4.001-4.001c2.209 0 4.001 1.791 4.001 4.001v0c-0.007 2.207-1.794 3.993-4 4.001h-0.001zM21.503 3.501h-11.002c-3.867 0-7.001 3.135-7.001 7.001v0 11.002c0 3.867 3.135 7.001 7.001 7.001v0h11.002c3.867 0 7.001-3.134 7.001-7.001v0-11.002c0-3.867-3.134-7.001-7.001-7.001v0zM26.504 21.503c0 2.762-2.239 5.001-5.001 5.001v0h-11.002c-2.762 0-5.001-2.239-5.001-5.001v0-11.002c0-2.762 2.239-5.001 5.001-5.001v0h11.002c2.762 0 5.001 2.239 5.001 5.001v0 11.002zM24.004 9.502c0 0.829-0.672 1.5-1.5 1.5s-1.5-0.672-1.5-1.5v0c0-0.829 0.672-1.5 1.5-1.5s1.5 0.672 1.5 1.5v0z"></path>
</symbol>
<symbol id="icon-youtube" viewBox="0 0 32 32">
<path d="M20.554 15.165l-6.001-4.001c-0.158-0.102-0.35-0.162-0.556-0.162-0.171 0-0.333 0.041-0.475 0.115l0.006-0.003c-0.315 0.173-0.525 0.502-0.525 0.88 0 0.003 0 0.005 0 0.008v-0 8.001c-0 0.002-0 0.005-0 0.008 0 0.378 0.21 0.707 0.52 0.877l0.005 0.003c0.148 0.074 0.31 0.112 0.475 0.112 0.195-0.002 0.386-0.058 0.55-0.162l6.001-4.001c0.275-0.181 0.454-0.489 0.454-0.838s-0.179-0.656-0.45-0.835l-0.004-0.002zM15.002 18.14v-4.276l3.2 2.138-3.2 2.138zM29.293 8.726c-0.241-0.944-0.915-1.692-1.793-2.031l-0.020-0.007c-4.276-1.65-11.102-1.637-11.477-1.637s-7.201-0.013-11.477 1.637c-0.898 0.346-1.571 1.094-1.808 2.018l-0.004 0.020c-0.326 1.238-0.713 3.513-0.713 7.276s0.387 6.039 0.712 7.276c0.241 0.944 0.915 1.692 1.793 2.031l0.020 0.007c4.101 1.587 10.527 1.638 11.39 1.638h0.174c0.863 0 7.289-0.050 11.39-1.638 0.898-0.346 1.572-1.094 1.808-2.018l0.004-0.020c0.326-1.238 0.713-3.513 0.713-7.276s-0.387-6.039-0.712-7.276zM27.354 22.78c-0.078 0.31-0.296 0.557-0.582 0.672l-0.007 0.002c-3.962 1.526-10.689 1.5-10.763 1.5h-0.013c-0.062 0-6.788 0.026-10.751-1.5-0.292-0.118-0.51-0.365-0.586-0.668l-0.001-0.007c-0.3-1.139-0.651-3.227-0.651-6.777s0.35-5.638 0.651-6.776c0.077-0.31 0.295-0.557 0.581-0.673l0.007-0.002c3.813-1.463 10.214-1.499 10.739-1.499h0.025c0.075 0 6.801-0.026 10.764 1.499 0.292 0.118 0.51 0.365 0.586 0.669l0.001 0.007c0.301 1.138 0.651 3.225 0.651 6.776s-0.35 5.638-0.651 6.776z"></path>
</symbol>
<symbol id="icon-burger-menu" viewBox="0 0 32 32">
<path stroke-linejoin="round" stroke-linecap="round" stroke-miterlimit="4" stroke-width="2.4" d="M28.004 13.336h-24.004M28.004 8.001h-24.004M28.004 18.669h-24.004M28.004 24.004h-24.004"></path>
</symbol>
<symbol id="icon-logo" viewBox="0 0 241 32">
<path d="M0 31.978v-31.967h5.992l14.797 10.373h0.226l14.797-10.373h5.992v31.967h-7.154v-23.025l-10.149 6.796v16.229h-7.154v-16.229l-10.194-6.796v23.025h-7.154zM48.519 31.978v-31.967h7.154v31.967h-7.154zM62.37 31.978v-31.967h7.244l22.622 22.98v-22.98h7.154v31.967h-7.24l-22.628-23.025v23.025h-7.154zM106.087 31.978v-31.967h7.154v31.967h-7.154zM119.938 31.978v-31.967h5.992l14.799 10.373h0.224l14.799-10.373h5.992v31.967h-7.154v-23.025l-10.151 6.796v16.229h-7.154v-16.229l-10.194-6.796v23.025h-7.154zM165.776 31.978l14.396-31.967h11.043l14.398 31.967h-7.781l-3.040-6.751h-18.197l-3.040 6.751h-7.779zM179.189 19.413h13.010l-6.214-13.812h-0.584l-6.212 13.814zM209.643 31.978v-31.967h7.154v26.156h23.383v5.811h-30.537z"></path>
</symbol>
<symbol id="icon-top-arrow" viewBox="0 0 32 32">
<path d="M10.009 15.539c-0.211-0.184-0.343-0.454-0.343-0.754 0-0.253 0.094-0.483 0.248-0.659l-0.001 0.001 5.333-6.117c0.184-0.21 0.453-0.342 0.753-0.342s0.569 0.132 0.752 0.341l0.001 0.001 5.333 6.117c0.161 0.177 0.26 0.413 0.26 0.672 0 0.552-0.448 1-1 1-0.307 0-0.582-0.138-0.765-0.356l-0.001-0.002-3.58-4.107v11.999c0 0.552-0.448 1-1 1s-1-0.448-1-1v0-11.997l-3.58 4.107c-0.184 0.21-0.453 0.342-0.753 0.342-0.252 0-0.483-0.093-0.658-0.247l0.001 0.001z"></path>
</symbol>
<symbol id="icon-error" viewBox="0 0 32 32">
<path d="M14.667 20h2.667v2.667h-2.667v-2.667zM14.667 9.333h2.667v8h-2.667v-8zM15.987 2.667c-7.36 0-13.32 5.973-13.32 13.333s5.96 13.333 13.32 13.333c7.373 0 13.347-5.973 13.347-13.333s-5.973-13.333-13.347-13.333zM16 26.667c-5.893 0-10.667-4.773-10.667-10.667s4.773-10.667 10.667-10.667 10.667 4.773 10.667 10.667-4.773 10.667-10.667 10.667z"></path>
</symbol>
</defs>
</svg>
